<?xml version="1.0" encoding="iso-8859-1"?>
<!-- Uploaded to: SVG Repo, www.svgrepo.com, Generator: SVG Repo Mixer Tools -->
<svg height="800px" width="800px" version="1.1" id="Layer_1" xmlns="http://www.w3.org/2000/svg" xmlns:xlink="http://www.w3.org/1999/xlink" 
	 viewBox="0 0 512 512" xml:space="preserve">
<path style="fill:#D8F4F2;" d="M509.095,217.331C490.453,94.295,384.239,0,256,0C114.616,0,0,114.616,0,256s114.616,256,256,256
	c10.654,0,21.153-0.662,31.466-1.927L509.095,217.331z"/>
<path style="fill:#C3C9C8;" d="M512,256c0-13.145-0.994-26.059-2.905-38.669L374.056,82.292L256,478.609l31.465,31.465
	C414.004,494.563,512,386.731,512,256z"/>
<path style="fill:#C92B31;" d="M256,33.391L211.478,256L256,478.609L389.643,300.43c20.919-27.888,33.313-62.536,33.313-100.083
	C422.957,108.14,348.208,33.391,256,33.391z"/>
<path style="fill:#F63341;" d="M89.043,200.348c0,37.545,12.395,72.194,33.313,100.083L256,478.609V33.391
	C163.792,33.391,89.043,108.14,89.043,200.348z"/>
<path style="fill:#D8F4F2;" d="M256,100.174l-44.522,100.174L256,300.522c55.325,0,100.174-44.849,100.174-100.174
	S311.325,100.174,256,100.174z"/>
<path style="fill:#FFFFFF;" d="M155.826,200.348c0,55.325,44.849,100.174,100.174,100.174V100.174
	C200.675,100.174,155.826,145.023,155.826,200.348z"/>
</svg>